<?xml version="1.0" ?><!DOCTYPE svg  PUBLIC '-//W3C//DTD SVG 1.1//EN'  'http://www.w3.org/Graphics/SVG/1.1/DTD/svg11.dtd'><svg height="2048px" style="shape-rendering:geometricPrecision; text-rendering:geometricPrecision; image-rendering:optimizeQuality; fill-rule:evenodd; clip-rule:evenodd" version="1.1" viewBox="0 0 2048 2048" width="2048px" xml:space="preserve" xmlns="http://www.w3.org/2000/svg" xmlns:xlink="http://www.w3.org/1999/xlink"><defs><style type="text/css">
   <![CDATA[
    .fil1 {fill:none}
    .fil0 {fill:#007EE5}
   ]]>
  </style></defs><g id="Layer_x0020_1"><path class="fil0" d="M568.414 854.868l-312.415 -250.193 451.843 -295.03 316.153 263.906 -455.579 281.32 455.579 281.316 -316.151 263.92 -451.843 -295.03 312.412 -250.208 0 0zm455.586 281.319l316.167 263.92 451.83 -295.03 -312.417 -250.211 -455.58 281.321zm768.001 -531.517l-451.829 -295.029 -316.167 263.905 455.58 281.32 312.416 -250.195zm-767.075 588.296l-317.084 263.125 -135.676 -88.5875 0 99.3261 452.759 271.529 452.772 -271.529 0 -99.3261 -135.66 88.5875 -317.112 -263.125z"/></g><rect class="fil1" height="2048" width="2048"/></svg>