<?xml version="1.0" ?><!DOCTYPE svg  PUBLIC '-//W3C//DTD SVG 1.1//EN'  'http://www.w3.org/Graphics/SVG/1.1/DTD/svg11.dtd'><svg height="2048px" style="shape-rendering:geometricPrecision; text-rendering:geometricPrecision; image-rendering:optimizeQuality; fill-rule:evenodd; clip-rule:evenodd" viewBox="0 0 2048 2048" width="2048px" xml:space="preserve" xmlns="http://www.w3.org/2000/svg" xmlns:xlink="http://www.w3.org/1999/xlink"><defs><style type="text/css">
   <![CDATA[
    .fil2 {fill:none}
    .fil0 {fill:#464442}
    .fil1 {fill:#FDFDFD}
   ]]>
  </style></defs><g id="Layer_x0020_1"><g id="_251947192"><path class="fil0" d="M1792 1024c0,424.148 -343.855,767.999 -767.997,767.999 -424.164,0 -768.004,-343.851 -768.004,-767.999 0,-424.164 343.84,-768.002 768.004,-768.002 424.142,0 767.997,343.838 767.997,768.002z" id="_251948176"/><path class="fil1" d="M1019.31 1744.77c-396.246,-0.148819 -719.305,-323.256 -717.408,-719.449 2.01969,-423.276 356.396,-721.879 725.608,-715.913 390.782,6.30237 711.253,325.273 710.941,719.259 -0.301181,393.958 -323.994,716.292 -719.142,716.103z" id="_251948488"/><path class="fil0" d="M1018.21 1710.95c-377.007,-0.112205 -683.118,-308.203 -682.835,-687.263 0.27874,-376.277 308.847,-680.751 689.46,-680.314 375.994,0.432284 679.051,308.721 678.78,690.518 -0.255118,371.529 -309.657,677.16 -685.405,677.059z" id="_251947960"/><path class="fil1" d="M1415.02 1111.05c35.9422,-109.317 22.0547,-209.998 -42.1217,-304.92 -18.4193,-27.215 -34.7233,-55.9323 -43.5319,-88.0879 -16.4268,-60.0284 11.0315,-119.564 64.4138,-138.654 11.7189,-4.17756 24.313,-5.92796 36.9744,-8.89371 -284.773,-264.753 -745.042,-180.894 -922.025,119.789 16.3382,0 31.4067,0.587008 46.4185,-0.113386 49.7056,-2.34213 99.3851,-5.00906 149.064,-7.7941 16.7622,-0.950788 29.0528,4.62638 30.8114,22.5355 1.78937,18.2835 -10.1197,25.8177 -26.3669,27.6721 -15.1512,1.7126 -30.4016,3.81142 -45.5729,3.67441 -18.8977,-0.151181 -19.6252,7.35709 -14.3303,22.8921 42.9095,125.942 85.2012,252.086 127.637,378.196 29.3551,87.2764 58.6406,174.566 90.3497,269.001 45.5469,-136.311 88.9666,-266.277 132.441,-396.255 2.74725,-8.20158 0.375591,-15.5221 -2.47677,-23.2736 -28.4055,-77.5205 -56.7083,-155.089 -84.5422,-232.813 -4.00748,-11.1945 -9.62245,-16.8047 -22.037,-17.3599 -17.6008,-0.799607 -35.1886,-2.99882 -52.6347,-5.62205 -13.1634,-1.98071 -19.2886,-11.6681 -18.6768,-24.1559 0.677953,-13.2992 7.75631,-23.1248 22.0477,-24.2103 9.52796,-0.73819 19.2272,0.454725 28.8236,1.11142 52.8378,3.54803 105.7,7.7693 158.692,5.87126 44.1107,-1.59921 88.1717,-4.36654 132.222,-7.12796 17.5465,-1.09843 34.0571,0.625985 36.3307,21.6071 2.48032,22.6878 -14.5051,27.6981 -32.7071,29.354 -11.9929,1.06063 -24.0118,2.59725 -36.0248,2.63386 -18.3449,0.0330709 -24.3154,4.27441 -17.2949,24.8114 57.2918,167.627 113.281,335.701 169.779,503.596 14.5299,43.213 29.4225,86.3009 45.6189,133.712 3.35433,-7.6819 4.87796,-10.4055 5.76615,-13.3288 27.5268,-91.3123 53.1685,-183.248 82.9536,-273.847z" id="_251948152"/><path class="fil1" d="M1192.65 1523.48c-53.3197,-146.068 -106.677,-292.11 -162.071,-443.863 -28.9418,83.8642 -55.8626,161.821 -82.7587,239.803 -32.1366,93.2115 -64.4056,186.408 -96.1028,279.769 -2.42953,7.14567 -12.2764,17.5028 5.20394,22.037 118.742,30.8079 236.509,28.8839 353.619,-8.5689 12.2067,-3.92363 11.8925,-8.92087 7.74568,-19.1528 -9.30709,-23.0374 -17.1165,-46.6737 -25.6358,-70.0241z" id="_251947816"/><path class="fil1" d="M751.515 1580.44c-98.5217,-269.913 -195.37,-535.241 -292.912,-802.447 -128.489,270.469 -28.4528,645.747 292.912,802.447z" id="_251947552"/><path class="fil1" d="M1567.81 745.088c-1.55079,-2.48504 -3.09921,-4.95355 -4.66063,-7.43859 -1.3937,1.39961 -4.11024,2.96811 -3.96142,4.16103 0.911812,7.56969 2.47559,15.0851 3.81142,22.6063 3.77835,72.3083 -7.78347,142.257 -31.6193,210.444 -39.9284,114.262 -79.643,228.598 -119.352,342.935 -27.228,78.3319 -54.2894,156.737 -82.3737,237.866 26.5736,-8.83111 46.5496,-26.0351 66.9508,-41.8252 230.969,-178.764 308.277,-497.686 171.204,-768.748z" id="_251947504"/></g></g><rect class="fil2" height="2048" width="2048"/></svg>